Coordinates
version=1
nRows=43
nColumns=12
inDegrees=yes

Units are S.I. units (second, meters, Newtons, ...)
Angles are in degrees

endheader
time	SC_y	SC_z	SC_x	AC_y	AC_z	AC_x	GH_y	GH_z	GH_yy	EL_x	PS_y
       0.0              -21.67          38.45          35.95          33.65         -7.879         -8.762         -10.41          31.87          27.04          106.4          90.98
   0.01727              -21.67          38.45          35.95          33.65          -7.88         -8.759         -10.42          31.87          27.01          106.4          90.98
   0.03454              -21.67          38.44          35.96          33.65         -7.881         -8.755         -10.42          31.87          26.99          106.3          90.98
    0.0518              -21.68          38.44          35.96          33.66         -7.882         -8.752         -10.43          31.87          26.97          106.3          90.99
   0.06907              -21.68          38.43          35.97          33.66         -7.883         -8.748         -10.44          31.87          26.94          106.3          90.99
   0.08634              -21.69          38.42          35.98          33.66         -7.885         -8.745         -10.45          31.87          26.91          106.3          90.99
    0.1036              -21.69          38.42          35.98          33.66         -7.886          -8.74         -10.47          31.87          26.88          106.3           91.0
    0.1209              -21.69          38.41          35.99          33.67         -7.887         -8.736         -10.48          31.87          26.85          106.3           91.0
    0.1381               -21.7           38.4           36.0          33.67         -7.889         -8.731         -10.49          31.87          26.81          106.3          91.01
    0.1554               -21.7          38.39          36.01          33.67         -7.891         -8.726          -10.5          31.87          26.78          106.3          91.02
    0.1727              -21.71          38.38          36.02          33.68         -7.892         -8.721         -10.52          31.87          26.74          106.2          91.02
    0.1899              -21.72          38.37          36.03          33.68         -7.894         -8.715         -10.53          31.87           26.7          106.2          91.03
    0.2072              -21.72          38.36          36.04          33.69         -7.896         -8.709         -10.55          31.87          26.65          106.2          91.04
    0.2245              -21.73          38.35          36.05          33.69         -7.899         -8.702         -10.57          31.87           26.6          106.2          91.04
    0.2417              -21.74          38.34          36.07           33.7         -7.901         -8.695         -10.59          31.87          26.55          106.2          91.05
     0.259              -21.75          38.33          36.08           33.7         -7.904         -8.687         -10.61          31.87          26.49          106.1          91.06
    0.2763              -21.76          38.31           36.1          33.71         -7.907         -8.678         -10.64          31.87          26.42          106.1          91.07
    0.2935              -21.77           38.3          36.11          33.72          -7.91         -8.669         -10.66          31.88          26.35          106.1          91.08
    0.3108              -21.78          38.28          36.13          33.73         -7.913         -8.659         -10.69          31.88          26.28          106.0          91.09
    0.3281              -21.79          38.26          36.15          33.73         -7.917         -8.647         -10.72          31.88           26.2          106.0           91.1
    0.3454               -21.8          38.24          36.17          33.74         -7.921         -8.635         -10.76          31.88          26.11          106.0          91.12
    0.3626              -21.81          38.22           36.2          33.75         -7.925         -8.622         -10.79          31.88          26.01          105.9          91.13
    0.3799              -21.83           38.2          36.23          33.76          -7.93         -8.607         -10.83          31.88           25.9          105.9          91.15
    0.3972              -21.85          38.17          36.26          33.78         -7.936          -8.59         -10.88          31.88          25.77          105.8          91.17
    0.4144              -21.87          38.14          36.29          33.79         -7.942         -8.572         -10.93          31.88          25.64          105.8          91.19
    0.4317              -21.89           38.1          36.33          33.81         -7.949         -8.551         -10.99          31.88          25.49          105.7          91.21
     0.449              -21.91          38.07          36.37          33.82         -7.956         -8.528         -11.05          31.88          25.32          105.6          91.24
    0.4662              -21.94          38.02          36.41          33.84         -7.965         -8.502         -11.12          31.89          25.12          105.6          91.27
    0.4835              -21.97          37.97          36.47          33.86         -7.974         -8.473          -11.2          31.89          24.91          105.5           91.3
    0.5008              -22.01          37.92          36.53          33.89         -7.985         -8.439         -11.29          31.89          24.66          105.4          91.34
     0.518              -22.05          37.86           36.6          33.92         -7.998         -8.401          -11.4          31.89          24.38          105.2          91.38
    0.5353              -22.09          37.78          36.68          33.95         -8.012         -8.358         -11.52           31.9          24.06          105.1          91.43
    0.5526              -22.14           37.7          36.77          33.99         -8.029         -8.307         -11.66           31.9          23.69          105.0          91.49
    0.5698              -22.21           37.6          36.87          34.03         -8.048         -8.249         -11.82           31.9          23.26          104.8          91.55
    0.5871              -22.28          37.49           37.0          34.08         -8.071          -8.18         -12.01          31.91          22.76          104.6          91.63
    0.6044              -22.36          37.36          37.14          34.14         -8.097           -8.1         -12.23          31.91          22.16          104.3          91.72
    0.6216              -22.46           37.2          37.32          34.22         -8.129         -8.004         -12.49          31.92          21.46          104.0          91.83
    0.6389              -22.58          37.01          37.52           34.3         -8.167         -7.889         -12.81          31.93          20.61          103.7          91.96
    0.6562              -22.73          36.78          37.77          34.41         -8.213          -7.75         -13.19          31.94          19.59          103.2          92.11
    0.6734              -22.91           36.5          38.08          34.53         -8.269          -7.58         -13.66          31.95          18.34          102.7          92.31
    0.6907              -23.13          36.15          38.46          34.69         -8.338          -7.37         -14.24          31.96          16.79          102.1          92.54
     0.708               -23.4          35.72          38.93          34.89         -8.424         -7.109         -14.96          31.98          14.87          101.2          92.84
    0.7252              -23.75          35.18          39.53          35.13         -8.533          -6.78         -15.86           32.0          12.44          100.2          93.21
